<?xml version="1.0" encoding="UTF-8"?>
<svg width="1654px" height="908px" viewBox="0 0 1654 908" version="1.1" xmlns="http://www.w3.org/2000/svg" xmlns:xlink="http://www.w3.org/1999/xlink">
    <!-- Generator: Sketch 42 (36781) - http://www.bohemiancoding.com/sketch -->
    <title>Artboard 3</title>
    <desc>Created with Sketch.</desc>
    <defs>
        <linearGradient x1="50%" y1="0%" x2="50%" y2="100%" id="linearGradient-1">
            <stop stop-color="#B4ED50" offset="0%"></stop>
            <stop stop-color="#429321" offset="100%"></stop>
        </linearGradient>
        <linearGradient x1="105.910287%" y1="56.3797712%" x2="-7.05443234%" y2="59.1055342%" id="linearGradient-2">
            <stop stop-color="#FBF04C" offset="0%"></stop>
            <stop stop-color="#56B881" offset="100%"></stop>
        </linearGradient>
        <linearGradient x1="-13.7237654%" y1="0%" x2="100%" y2="100%" id="linearGradient-3">
            <stop stop-color="#65CE52" offset="0%"></stop>
            <stop stop-color="#35A470" offset="100%"></stop>
        </linearGradient>
        <linearGradient x1="81.8797275%" y1="94.6271218%" x2="-8.35426948%" y2="-7.74354784%" id="linearGradient-4">
            <stop stop-color="#4FC157" offset="0%"></stop>
            <stop stop-color="#23947B" offset="100%"></stop>
        </linearGradient>
    </defs>
    <g id="Page-1" stroke="none" stroke-width="1" fill="none" fill-rule="evenodd">
        <g id="Artboard-3">
            <path d="M730.001681,186.976386 L730.001681,560.376805 L1225.43731,238.362066 C1201.29007,82.4804274 1154,-46 1154,-46 L1191,-46 C1191,-46 1276.62681,191.561807 1277,410 C1277.37319,628.438193 1215.50084,778 1215.50084,778 L1177.00084,775.5 C1177.00084,775.5 1239.27439,622.878514 1239.27439,404.278475 C1239.27439,362.385242 1236.14251,320.011677 1231.07915,278.880504 L730.001681,606.288308 L730.001681,806 L691.5,811.5 L691.536069,791.532282 L159.401601,554.859657 C175.47286,704.795715 215.000841,801.671819 215.000841,801.671819 L176.500841,798.171819 C176.500841,798.171819 114.628495,654.610012 115.001681,436.171819 C115.374867,217.733626 201.001681,-19.8281808 201.001681,-19.8281808 L238.001681,-19.8281808 C238.001681,-19.8281808 213.022215,48.0374878 190.10258,144.964369 L692.311517,362.245441 L693.001681,-19.8281808 L730.001681,-19.8281808 L730.001681,141.066121 L1227.05491,-182 L1247.20655,-150.969189 L730.001681,186.976386 Z M155.645386,512.656654 L691.612025,749.483095 L692.235869,404.12415 L181.832795,181.771459 C165.868146,256.809023 152.727288,344.637355 152.727288,430.450294 C152.727288,459.046099 153.792921,486.51287 155.64539,512.656657 Z" id="Combined-Shape" fill="url(#linearGradient-1)" opacity="0.135303442"></path>
            <path d="M0,0 L1654,0 L1654,792.5 C872,954.5 827,601.5 0,884.745891 L0,0 Z" id="Rectangle" fill="url(#linearGradient-2)" opacity="0.7109375" transform="translate(827.000000, 442.372946) scale(-1, 1) translate(-827.000000, -442.372946) "></path>
            <path d="M186.507844,885.918597 C201.02037,889.307062 213.519178,879.981657 213.715704,865.073355 C213.715704,865.073355 224.824412,779.053957 162.785097,660.553957 C100.745782,542.053957 -15.309591,509.401135 -15.309591,509.401135 C-25.198422,505.895685 -34.9269644,511.392483 -36.7319438,521.715758 C-36.7319438,521.715758 -69.1988182,656.422888 -2.71490344,761.553957 C63.7690113,866.685025 186.507844,885.918597 186.507844,885.918597 Z" id="Line" fill="url(#linearGradient-3)" transform="translate(84.740331, 699.583585) rotate(-7.000000) translate(-84.740331, -699.583585) "></path>
            <path d="M1639.95763,867.255064 C1643.74452,868.008855 1647.07753,865.50248 1647.32118,861.638483 C1647.32118,861.638483 1658.85372,755.619923 1596.8144,637.119923 C1534.77509,518.619923 1418.71971,485.967102 1418.71971,485.967102 C1408.83088,482.461652 1399.10234,487.958449 1397.29736,498.281725 C1397.29736,498.281725 1364.83049,632.988855 1431.3144,738.119923 C1497.79832,843.250992 1639.95763,867.255064 1639.95763,867.255064 Z" id="Line" fill="url(#linearGradient-4)" transform="translate(1518.769636, 676.149551) rotate(-108.000000) translate(-1518.769636, -676.149551) "></path>
        </g>
    </g>
</svg>